<svg width="178" height="24" viewBox="0 0 178 24" fill="none" xmlns="http://www.w3.org/2000/svg">
<g clip-path="url(#clip0_188_347)">
<path d="M170.793 9.90812H173.237C176.085 9.90812 178 11.5966 178 14.1923C178 16.788 176.085 18.4764 173.237 18.4764H167.542V5.87598H170.793V9.90812ZM170.793 15.6035H173.263C174.17 15.6035 174.825 15.0239 174.825 14.1923C174.825 13.3606 174.17 12.7558 173.263 12.7558H170.793V15.6035Z" fill="#252525"/>
<path d="M154.642 5.87607H165.806V9.00098H161.874V18.4765H158.623V9.00098H154.642V5.87607Z" fill="#252525"/>
<path d="M147.857 14.3435L150.654 5.87598H154.132L149.545 18.4764C148.26 22.0297 146.042 23.693 142.892 23.5166V20.4925C144.606 20.5177 145.513 19.9129 146.118 18.3252L141.027 5.87598H144.48L147.857 14.3435Z" fill="#252525"/>
<path d="M126.127 0.836914H139.307V18.4775H135.829V4.16343H129.605V18.4775H126.127V0.836914Z" fill="#252525"/>
<path d="M108.354 13.0331L114.276 5.8761H116.696V18.4765H113.52V11.3195L107.598 18.4765H105.179V5.8761H108.354V13.0331Z" fill="#252525"/>
<path d="M90.3661 9.90812H92.8106C95.6583 9.90812 97.5736 11.5966 97.5736 14.1923C97.5736 16.788 95.6583 18.4764 92.8106 18.4764H87.1152V5.87598H90.3661V9.90812ZM98.9596 18.4764V5.87598H102.211V18.4764H98.9596ZM90.3661 15.6035H92.8358C93.7431 15.6035 94.3983 15.0239 94.3983 14.1923C94.3983 13.3606 93.7431 12.7558 92.8358 12.7558H90.3661V15.6035Z" fill="#252525"/>
<path d="M80.885 10.6391V5.8761H84.1359V18.4765H80.885V13.6884H75.8701V18.4765H72.6191V5.8761H75.8701V10.6391H80.885Z" fill="#252525"/>
<path d="M66.4199 11.4203V5.87607H69.6709V18.4765H66.4199V14.4696C65.4875 14.772 64.4795 14.9232 63.421 14.9232C60.3717 14.9232 58.3809 13.3355 58.3809 10.387V5.87607H61.6318V10.009C61.6318 11.2691 62.413 11.8991 63.9755 11.8991C64.8827 11.8991 65.6891 11.7479 66.4199 11.4203Z" fill="#252525"/>
<path d="M55.0295 16.915C53.7442 18.2003 52.1566 18.8303 50.2917 18.8303C48.4268 18.8303 46.8392 18.2003 45.5539 16.915C44.2687 15.6298 43.6387 14.0421 43.6387 12.1772C43.6387 10.3124 44.2687 8.74993 45.5539 7.46468C46.8392 6.17944 48.4268 5.52422 50.2917 5.52422C52.1566 5.52422 53.7442 6.17944 55.0295 7.46468C56.3147 8.74993 56.9699 10.3124 56.9699 12.1772C56.9699 14.0421 56.3147 15.6298 55.0295 16.915ZM47.8472 14.6721C48.5024 15.3274 49.3089 15.655 50.2917 15.655C51.2745 15.655 52.081 15.3274 52.7362 14.6721C53.3914 14.0169 53.719 13.1853 53.719 12.1772C53.719 11.1692 53.3914 10.3376 52.7362 9.68236C52.081 9.02714 51.2745 8.69953 50.2917 8.69953C49.3089 8.69953 48.5024 9.02714 47.8472 9.68236C47.2172 10.3376 46.8896 11.1692 46.8896 12.1772C46.8896 13.1853 47.2172 14.0169 47.8472 14.6721Z" fill="#252525"/>
<path d="M31.3673 5.8761H41.3468V18.4765H38.0959V9.00101H34.6182V13.2096C34.6182 17.1157 32.8541 18.8545 29.3008 18.4765V15.4272C30.6364 15.7548 31.3673 14.9736 31.3673 13.0331V5.8761Z" fill="#252525"/>
<path d="M22.1298 18.8308C20.1389 18.8308 18.5513 18.2007 17.3164 16.9155C16.1068 15.6302 15.502 14.0174 15.502 12.0517C15.502 9.90965 15.8296 8.24639 16.4596 7.08715C17.0896 5.90271 18.3749 4.84428 20.3153 3.88664C20.5925 3.76064 20.9957 3.55903 21.525 3.33222L22.5834 2.80301C22.785 2.7022 23.0622 2.551 23.3898 2.34939C24.2971 1.79497 24.5491 1.34136 24.9775 0.358521L27.6488 1.89577C27.422 2.92901 26.9432 3.71024 26.1619 4.28986C25.4059 4.84428 24.2719 5.4239 22.7346 6.00352C20.5925 6.83515 19.7609 7.59117 19.3325 8.77561C20.2649 7.81798 21.525 7.33916 23.1126 7.33916C24.4987 7.33916 25.7587 7.84318 26.8423 8.87642C27.926 9.88445 28.4804 11.2201 28.4804 12.9086C28.4804 14.6474 27.9008 16.0587 26.7163 17.1675C25.5571 18.2763 24.0199 18.8308 22.1298 18.8308ZM22.0794 9.93485C21.2478 9.93485 20.5169 10.1869 19.8617 10.7161C19.2317 11.2453 18.9041 11.9257 18.9041 12.8078C18.9041 13.6898 19.2065 14.4206 19.8113 15.0002C20.4413 15.5798 21.1974 15.8571 22.1046 15.8571C23.0118 15.8571 23.7678 15.5798 24.3475 15.0254C24.9271 14.471 25.2295 13.7654 25.2295 12.9086C25.2295 11.1949 23.919 9.93485 22.0794 9.93485Z" fill="#252525"/>
<path d="M6.37582 0.836838H13.4321V18.4774H9.95435V12.3536H7.96348L3.90614 18.4774H0L4.30935 11.9756C2.06647 11.1692 0.504018 9.02712 0.504018 6.68344C0.504018 5.07058 1.08364 3.68454 2.21768 2.5505C3.35172 1.41646 4.73776 0.836838 6.37582 0.836838ZM6.37582 9.30433H9.95435V4.08775H6.37582C5.06538 4.08775 3.98174 5.24699 3.98174 6.68344C3.98174 8.11989 5.06538 9.30433 6.37582 9.30433Z" fill="#252525"/>
<path d="M110.61 5.76999C110.495 4.34155 110.265 0.270279 114.806 -0.0174255C115.44 2.52693 113.387 6.09631 110.61 5.76999Z" fill="#252525"/>
</g>
<defs>
<clipPath id="clip0_188_347">
<rect width="178" height="24" fill="white"/>
</clipPath>
</defs>
</svg>
