<svg width="108" height="41" viewBox="0 0 108 41" fill="none" xmlns="http://www.w3.org/2000/svg">
<path d="M15.272 19.9896C15.272 22.6909 13.0902 24.8519 10.3629 24.8519C7.63567 24.8519 5.45385 22.6909 5.45385 19.9896C5.45385 17.2883 7.63567 15.1273 10.3629 15.1273H15.272V19.9896ZM20.7266 0H15.272V9.83273C13.4175 9.83273 11.5629 9.83273 10.3629 9.83273C4.69022 9.83273 0.108398 14.3709 0.108398 19.9896C0.108398 25.6083 4.69022 30.1465 10.3629 30.1465C16.0357 30.1465 20.6175 25.6083 20.6175 19.9896C20.6175 17.1803 20.6175 9.83273 20.6175 9.83273L20.7266 0Z" fill="#252525"/>
<path d="M74.9457 24.852C77.673 24.852 79.8548 22.6909 79.8548 19.9896C79.8548 17.2883 77.673 15.1273 74.9457 15.1273C72.2185 15.1273 70.0367 17.2883 70.0367 19.9896C70.1457 22.6909 72.3276 24.852 74.9457 24.852ZM64.8003 19.9896C64.8003 14.3709 69.3821 9.83276 75.0548 9.83276C80.7276 9.83276 85.3094 14.3709 85.3094 19.9896C85.3094 25.6083 80.7276 30.1465 75.0548 30.1465C69.3821 30.1465 64.8003 25.6083 64.8003 19.9896Z" fill="#252525"/>
<path d="M102.437 19.9896C102.437 17.3964 100.255 15.2354 97.6369 15.2354C95.0187 15.2354 92.8369 17.3964 92.8369 19.9896C92.8369 21.2863 92.8369 29.7143 92.8369 29.7143C90.1096 29.7143 87.4915 29.7143 87.4915 29.7143C87.4915 29.7143 87.4915 22.799 87.4915 19.9896C87.4915 14.3709 92.0733 9.83276 97.746 9.83276C103.419 9.83276 108.001 14.3709 108.001 19.9896C108.001 22.799 108.001 29.7143 108.001 29.7143C108.001 29.7143 105.382 29.7143 102.655 29.7143C102.437 29.7143 102.437 21.2863 102.437 19.9896Z" fill="#252525"/>
<path d="M52.2546 16.5326C51.491 15.9924 51.7092 15.1279 53.0183 14.8038C54.6546 14.3716 57.491 14.6957 59.891 15.7762L62.4001 12.3186C61.3092 11.4542 58.9092 10.2656 55.4183 10.0495C55.4183 10.0495 49.5274 9.29313 47.1274 13.7233C47.1274 13.7233 45.0546 17.8292 49.2001 20.4225C51.7092 21.9352 56.0728 22.5835 57.491 23.2318C58.5819 23.8801 58.2546 25.0687 56.6183 25.3929C53.7819 26.0412 50.0728 24.4204 48.8728 23.556L46.2546 27.1217C48.0001 28.4183 50.1819 29.6069 53.6728 30.1472C53.6728 30.1472 59.2365 31.1196 62.291 27.3378C62.8365 26.6895 65.3455 22.0433 60.3274 19.342C57.7092 17.9373 53.5637 17.289 52.2546 16.5326Z" fill="#252525"/>
<path d="M27.1635 33.6044C27.3817 33.7124 29.8907 35.4412 32.2907 35.4412C38.1817 35.5493 38.5089 29.4984 38.5089 28.0937C37.418 29.2823 35.1271 30.0386 33.7089 30.0386C28.0362 30.0386 23.5635 25.7166 23.5635 20.0979C23.5635 17.2885 23.5635 10.2651 23.5635 10.2651C23.5635 10.2651 26.1817 10.2651 28.9089 10.2651C28.9089 10.2651 28.9089 18.9093 28.9089 20.0979C28.9089 22.6911 31.0907 24.8521 33.7089 24.8521C36.3271 24.8521 38.5089 22.6911 38.5089 20.0979C38.5089 19.0173 38.5089 10.2651 38.5089 10.2651C41.2362 10.2651 43.8544 10.2651 43.8544 10.2651V20.0979C43.8544 28.8501 44.2908 37.8184 35.6726 39.8714C29.2362 41.3841 24.6544 37.3862 24.3271 37.1701L27.1635 33.6044Z" fill="#252525"/>
</svg>
