<svg width="138" height="22" viewBox="0 0 138 22" fill="none" xmlns="http://www.w3.org/2000/svg">
<g clip-path="url(#clip0_188_2102)">
<mask id="mask0_188_2102" style="mask-type:luminance" maskUnits="userSpaceOnUse" x="-11" y="-12" width="160" height="45">
<path d="M-10.57 -11.1909H148.577V32.8125H-10.57V-11.1909Z" fill="white"/>
</mask>
<g mask="url(#mask0_188_2102)">
<path d="M131.02 9.47465V12.4695H133.042V15.4408C133.048 15.7063 133.035 15.9927 132.991 16.2218C132.91 16.7761 132.404 17.7198 130.969 17.7198C129.542 17.7198 129.046 16.7761 128.96 16.2218C128.923 15.9927 128.908 15.7063 128.908 15.4408V6.05584C128.908 5.72387 128.929 5.36053 128.997 5.08551C129.095 4.58532 129.521 3.59891 130.959 3.59891C132.468 3.59891 132.844 4.63885 132.931 5.08551C132.987 5.38136 132.991 5.87759 132.991 5.87759V7.0172H137.959V6.34351C137.959 6.34351 137.982 5.64055 137.921 4.98453C137.548 1.1325 134.499 -0.0862103 131.002 -0.0862103C127.5 -0.0862103 124.512 1.14384 124.077 4.98453C124.038 5.33574 123.978 5.96751 123.978 6.34351V14.9768C123.978 15.3528 123.989 15.6439 124.056 16.331C124.381 20.077 127.5 21.4049 130.988 21.4049C134.499 21.4049 137.596 20.077 137.926 16.331C137.985 15.6439 137.991 15.3528 137.999 14.9768V9.47465H131.02ZM96.762 0.466188H91.7726V15.6573C91.7804 15.922 91.7726 16.2195 91.7287 16.4375C91.6246 16.9475 91.2094 17.9289 89.8329 17.9289C88.474 17.9289 88.048 16.9475 87.9517 16.4375C87.9018 16.2195 87.8955 15.922 87.9018 15.6573V0.466188H82.9139V15.1859C82.9075 15.5653 82.9362 16.3405 82.9577 16.5435C83.302 20.3792 86.2063 21.6245 89.8329 21.6245C93.4665 21.6245 96.3691 20.3792 96.7197 16.5435C96.7473 16.3405 96.7835 15.5653 96.762 15.1859V0.466188ZM50.9182 0.466188L48.4293 16.5177L45.942 0.466188H37.8936L37.4668 21.0007H42.3975L42.531 1.99129L45.9235 21.0007H50.9261L54.3216 1.99129L54.4556 21.0007H59.3987L58.9574 0.466188H50.9182ZM21.1196 0.466188L17.4652 21.0007H22.7944L25.5482 1.99129L28.236 21.0007H33.5281L29.8889 0.466188H21.1196ZM114.199 16.9989L109.553 0.466188H102.232V20.7866H107.075L106.794 3.72495L111.784 20.7866H118.805V0.466188H113.93L114.199 16.9989ZM69.4022 5.81036C69.3145 5.40483 69.3398 4.97398 69.3852 4.7488C69.5263 4.09146 69.9506 3.37453 71.1731 3.37453C72.3126 3.37453 72.9806 4.11387 72.9806 5.22342V6.47904H77.8444V5.04781C77.8444 0.623339 74.0334 -0.0717087 71.2742 -0.0717087C67.7991 -0.0717087 64.9612 1.12063 64.4429 4.44979C64.3058 5.35578 64.2719 6.15999 64.49 7.18621C65.3351 11.3373 72.2779 12.5415 73.2856 15.1666C73.4634 15.6639 73.4125 16.298 73.3218 16.6717C73.1708 17.3548 72.7293 18.042 71.4204 18.042C70.1928 18.042 69.4538 17.3074 69.4538 16.2002L69.4523 14.2295H64.2171V15.796C64.2171 20.3352 67.6329 21.7047 71.312 21.7047C74.8354 21.7047 77.7456 20.4514 78.2125 17.0543C78.4351 15.299 78.2672 14.1557 78.1778 13.7251C77.3621 9.46753 69.9622 8.18686 69.4022 5.81036ZM5.2424 5.75999C5.1469 5.34603 5.16919 4.90911 5.22238 4.6813C5.35715 4.02712 5.784 3.29753 7.02806 3.29753C8.18195 3.29753 8.86136 4.044 8.86136 5.16251V6.43342H13.7822V4.99086C13.7822 0.523935 9.9129 -0.18799 7.12357 -0.18799C3.61936 -0.18799 0.75606 1.02281 0.232189 4.37597C0.0888088 5.29646 0.0642285 6.1062 0.271446 7.14376C1.12565 11.342 8.13711 12.556 9.15724 15.2125C9.34825 15.7063 9.29049 16.3405 9.19575 16.7286C9.03387 17.4189 8.58879 18.1158 7.26898 18.1158C6.03656 18.1158 5.2994 17.3686 5.2994 16.2461L5.29256 14.2701H-0.00137329V15.8403C-0.00137329 20.4314 3.46281 21.812 7.17043 21.812C10.7349 21.812 13.6621 20.5477 14.1396 17.1112C14.377 15.3398 14.1989 14.1871 14.1188 13.7499C13.2862 9.44011 5.80401 8.16366 5.2424 5.75999Z" fill="#252525"/>
</g>
</g>
<defs>
<clipPath id="clip0_188_2102">
<rect width="138" height="22" fill="white"/>
</clipPath>
</defs>
</svg>
