<svg width="128" height="22" viewBox="0 0 128 22" fill="none" xmlns="http://www.w3.org/2000/svg">
<g clip-path="url(#clip0_188_2112)">
<path d="M45.6013 22.001C40.96 22.001 36.6592 20.651 33.792 18.1335C32.7667 17.2338 31.9498 16.1309 31.3958 14.8983C30.8417 13.6658 30.5633 12.332 30.5792 10.986C30.576 9.64554 30.8602 8.3193 31.4136 7.09261C31.9669 5.86591 32.7771 4.76594 33.792 3.86348C36.4544 1.50098 41.1648 0.000976562 45.6013 0.000976562C50.5088 0.000976562 54.4384 1.20848 57.4413 3.86848C58.4522 4.77063 59.257 5.87081 59.8031 7.09722C60.3492 8.32363 60.6243 9.6487 60.6106 10.986C60.6037 12.3246 60.3194 13.648 59.7747 14.8764C59.23 16.1048 58.4363 17.2127 57.4413 18.1335C54.6432 20.666 50.2503 22.001 45.6013 22.001V19.106C48.0615 19.106 50.345 18.276 51.9398 16.726C53.5347 15.176 54.2592 13.296 54.2592 10.976C54.2592 8.76098 53.4631 6.69098 51.9398 5.22598C50.3655 3.71348 48.0282 2.86098 45.6013 2.86098C43.1744 2.86098 40.8269 3.70598 39.2525 5.22598C37.7344 6.69348 36.9485 8.77098 36.9485 10.976C36.9257 12.0354 37.1175 13.0887 37.5129 14.0755C37.9083 15.0623 38.4995 15.963 39.2525 16.726C40.8269 18.2585 43.159 19.106 45.6013 19.106V22.001ZM11.712 0.000976562C9.23137 0.000976562 6.41282 0.455977 4.03202 1.50098C1.80994 2.47098 1.57746e-05 4.02848 1.57746e-05 6.61098C-0.00332269 7.96336 0.523353 9.26574 1.47202 10.251C2.11458 10.831 3.15138 11.816 5.85986 12.396C7.07073 12.646 9.65889 13.0485 12.2368 13.3135C14.8147 13.5785 17.3133 13.8135 18.3373 14.081C19.1514 14.2835 20.521 14.5585 20.521 16.0585C20.521 17.5585 19.0797 18.0085 18.8288 18.106C18.5779 18.2035 16.8474 18.9785 13.7395 18.9785C11.6804 18.9227 9.63998 18.58 7.68002 17.961C6.52034 17.556 5.30434 17.0235 4.17026 15.671C3.71258 15.0341 3.45867 14.2789 3.44066 13.501H0.624656V21.201H3.75298V20.1585C3.75248 20.0812 3.7731 20.0051 3.81272 19.9381C3.85233 19.8712 3.90951 19.8158 3.97836 19.7775C4.0472 19.7393 4.12523 19.7198 4.20441 19.7208C4.28359 19.7218 4.36105 19.7435 4.42882 19.7835C5.90267 20.4098 7.43573 20.8937 9.00609 21.2285C10.6496 21.5635 11.712 21.806 13.7549 21.806C15.9106 21.846 18.059 21.5498 20.1191 20.9285C21.487 20.5623 22.7705 19.9437 23.9002 19.106C24.5356 18.6294 25.0491 18.0153 25.4005 17.3122C25.7518 16.609 25.9314 15.8359 25.9251 15.0535C25.9358 13.5671 25.3484 12.1361 24.2893 11.0685C23.7004 10.5103 23.0181 10.0546 22.272 9.72098C21.4699 9.36707 20.6372 9.08346 19.7837 8.87348C18.1607 8.48598 14.5152 8.00098 12.7719 7.83098C10.944 7.64598 7.77218 7.38848 6.50498 7.00598C6.12098 6.88848 5.33762 6.52598 5.33762 5.63848C5.33762 5.00598 5.69601 4.47098 6.40258 4.03848C7.52641 3.35098 9.79458 2.92348 12.16 2.92348C14.4496 2.89648 16.7204 3.32962 18.8314 4.19598C19.3985 4.43726 19.9319 4.74809 20.4186 5.12098C21.212 5.78274 21.7614 6.68021 21.9827 7.67598H24.5095V0.973477H21.6935V1.75098C21.6935 2.00098 21.4375 2.33098 20.9255 2.05848C19.6557 1.41348 16.0871 0.0184766 11.712 0.000976562ZM73.5334 1.23098L87.296 13.3585L87.1552 5.19348C87.1398 4.12098 86.9402 3.67348 85.7523 3.67348H83.1667V1.23098H94.9427V3.67348H92.416C91.2077 3.67348 91.136 4.05348 91.1155 5.19348L91.328 20.796H87.296L71.4419 6.98098V16.7835C71.4547 17.851 71.5059 18.3535 72.6298 18.3535H75.4458V20.796H63.9027V18.3535H66.6061C67.6147 18.3535 67.5738 17.4135 67.5738 16.7285V5.28598C67.5738 4.53598 67.4662 3.67598 65.8842 3.67598H63.6928V1.23098H73.5334ZM108.378 18.3485C108.61 18.3485 108.843 18.3343 109.074 18.306C109.194 18.2708 109.305 18.2106 109.398 18.1294C109.492 18.0482 109.567 17.9481 109.617 17.836C109.652 17.6623 109.67 17.4856 109.67 17.3085V13.446C109.67 13.316 109.67 13.3135 109.501 13.1085C109.332 12.9035 102.292 5.10848 101.972 4.75848C101.573 4.33348 100.872 3.67598 99.8042 3.67598H97.3594V1.23098H111.158V3.67098H109.494C109.11 3.67098 108.854 4.02848 109.181 4.42098C109.181 4.42098 113.825 9.84598 113.869 9.90348C113.912 9.96098 113.951 9.97348 114.01 9.92098C114.068 9.86848 118.769 4.47098 118.804 4.42098C118.86 4.34977 118.894 4.26449 118.901 4.17526C118.908 4.08604 118.889 3.99661 118.846 3.91763C118.803 3.83864 118.738 3.77341 118.658 3.72969C118.578 3.68596 118.486 3.66559 118.395 3.67098H116.687V1.23098H128V3.67598H125.473C124.557 3.67598 124.193 3.84098 123.494 4.60098L115.878 13.086C115.804 13.191 115.771 13.319 115.786 13.446V17.306C115.788 17.4832 115.806 17.6598 115.843 17.8335C115.892 17.9457 115.966 18.046 116.059 18.1272C116.152 18.2084 116.263 18.2686 116.383 18.3035C116.612 18.333 116.843 18.3472 117.074 18.346H119.657V20.791H105.93V18.346L108.378 18.3485Z" fill="#252525"/>
</g>
<defs>
<clipPath id="clip0_188_2112">
<rect width="128" height="22" fill="white"/>
</clipPath>
</defs>
</svg>
