<svg width="51" height="51" viewBox="0 0 51 51" fill="none" xmlns="http://www.w3.org/2000/svg">
<g clip-path="url(#clip0_188_2136)">
<path d="M45.6842 5.3287C40.8727 0.535699 33.9543 0 25.5 0C17.035 0 10.1062 0.541875 5.29663 5.34783C0.487787 10.1518 0 17.0695 0 25.5248C0 33.9815 0.487787 40.9013 5.29862 45.707C10.1079 50.5136 17.0359 51.0001 25.5 51.0001C33.9642 51.0001 40.891 50.5136 45.7003 45.707C50.5108 40.9004 51 33.9815 51 25.5248C51 17.0586 50.5055 10.1335 45.6842 5.3287Z" fill="#252525"/>
<path d="M40.2974 15.7986C40.4726 15.7986 40.6184 15.9397 40.6184 16.1134V34.9781C40.6184 35.1489 40.4726 35.2907 40.2974 35.2907H36.164C35.9866 35.2907 35.8424 35.1489 35.8424 34.9781V16.1134C35.8424 15.9398 35.9865 15.7986 36.164 15.7986H40.2974ZM22.3599 15.7986C25.478 15.7986 28.7382 15.9415 30.3462 17.5506C31.9271 19.1341 32.0983 22.2869 32.1049 25.3486V34.978C32.1049 35.1488 31.9609 35.2906 31.7843 35.2906H27.6515C27.4745 35.2906 27.3298 35.1488 27.3298 34.978V25.183C27.3254 23.473 27.2271 21.7156 26.3453 20.8308C25.5863 20.0697 24.1699 19.8954 22.6971 19.8593H15.2055C15.0298 19.8593 14.8859 20.0006 14.8859 20.1716V34.9781C14.8859 35.1489 14.7403 35.2907 14.5635 35.2907H10.4281C10.2514 35.2907 10.1093 35.1489 10.1093 34.9781V16.1134C10.1093 15.9398 10.2513 15.7986 10.4281 15.7986H22.3599ZM23.285 23.3118C23.4609 23.3118 23.6038 23.4526 23.6038 23.6249V34.9781C23.6038 35.1489 23.4608 35.2907 23.285 35.2907H18.9436C18.7651 35.2907 18.6221 35.1489 18.6221 34.9781V23.6249C18.6221 23.4526 18.7651 23.3118 18.9436 23.3118H23.285Z" fill="white"/>
</g>
<defs>
<clipPath id="clip0_188_2136">
<rect width="51" height="51" fill="white"/>
</clipPath>
</defs>
</svg>
