<svg width="66" height="20" viewBox="0 0 66 20" fill="none" xmlns="http://www.w3.org/2000/svg">
<path fill-rule="evenodd" clip-rule="evenodd" d="M6.64604 9.40183C5.66908 9.40183 5.09259 9.39124 4.76259 9.38065C4.5373 9.37372 4.36007 9.18917 4.36007 8.96387V3.65698C4.36007 3.43169 4.5373 3.24713 4.76259 3.2398C5.09259 3.22961 5.66908 3.21861 6.64604 3.21861C9.03304 3.21861 10.3673 4.19802 10.3673 6.31002C10.3673 8.42284 9.03304 9.40183 6.64604 9.40183ZM7.79696 0.00172458C4.76707 0.0632431 0.453852 0.220909 0.453852 0.220909C0.200444 0.229058 0 0.436021 0 0.688206V19.1947C0 19.4819 0.233853 19.7141 0.522705 19.7141H3.83574C4.12419 19.7141 4.35763 19.4819 4.35763 19.1947L4.36007 12.9919C4.36007 12.754 4.55645 12.5641 4.796 12.5747C5.26045 12.5967 6.14248 12.6187 7.79696 12.6187C11.761 12.6187 14.1383 9.94084 14.1383 6.31002C14.1383 2.67961 11.7602 -0.0789421 7.79696 0.00172458ZM24.5025 16.6791C21.6299 16.6791 21.229 13.9303 21.229 9.86355C21.229 5.72918 21.6299 3.04722 24.5025 3.04722C27.376 3.04722 27.7769 5.85018 27.7769 9.86355C27.7769 13.9144 27.376 16.6791 24.5025 16.6791ZM24.5025 0.00143848C21.9897 0.00143848 16.8364 0.643106 16.8364 9.86355C16.8364 19.0836 21.9897 19.7244 24.5025 19.7244C27.0162 19.7244 32.1695 19.0836 32.1695 9.86355C32.1695 0.643106 27.0162 0.00143848 24.5025 0.00143848ZM57.7243 16.6791C54.8513 16.6791 54.45 13.9303 54.45 9.86355C54.45 5.72918 54.8513 3.04722 57.7243 3.04722C60.5978 3.04722 60.9987 5.85018 60.9987 9.86355C60.9987 13.9144 60.5978 16.6791 57.7243 16.6791ZM57.7243 0.00143848C55.2106 0.00143848 50.0581 0.643106 50.0581 9.86355C50.0581 19.0836 55.2106 19.7244 57.7243 19.7244C60.238 19.7244 65.3913 19.0836 65.3913 9.86355C65.3913 0.643106 60.238 0.00143848 57.7243 0.00143848ZM34.8996 9.86575C34.8996 14.8769 36.5977 19.7275 42.9691 19.7275C45.3292 19.7275 47.229 18.9147 47.9452 18.5619C48.1204 18.4747 48.1994 18.2693 48.1285 18.0868L47.3194 16.0164C47.2489 15.8359 47.0546 15.7381 46.8688 15.7907C46.3322 15.9414 45.2049 16.2127 44.0365 16.2127C40.4721 16.2127 39.2711 13.4513 39.2711 9.86575C39.2711 6.28016 40.4721 3.55297 44.0365 3.55297C45.2037 3.55297 46.3306 3.8239 46.8672 3.97464C47.0538 4.02719 47.2489 3.92901 47.3182 3.7469L48.1301 1.64427C48.2006 1.46134 48.1212 1.25682 47.946 1.17086C47.2314 0.817231 45.3308 0.00404582 42.9691 0.00404582C36.5977 0.00404582 34.8996 4.85464 34.8996 9.86575Z" fill="#252525"/>
</svg>
