<svg width="122" height="31" viewBox="0 0 122 31" fill="none" xmlns="http://www.w3.org/2000/svg">
<path d="M1.69552 1.55771C1.65453 1.56516 1.59863 1.59125 1.57628 1.60988C1.53901 1.63969 1.52783 4.39355 1.52783 15.1481C1.52783 28.1758 1.53156 28.6453 1.59491 28.705C1.65826 28.7646 1.89302 28.7683 4.1848 28.7683C6.64053 28.7683 6.71134 28.7646 6.78214 28.6938C6.85294 28.623 6.85294 28.5 6.85667 17.7492C6.85667 7.49023 6.86039 6.87164 6.92002 6.82692C6.97219 6.78966 7.87026 6.78221 11.3843 6.78593C13.8028 6.78966 15.9008 6.80457 16.0424 6.81947C16.374 6.86046 16.9889 7.03933 17.2535 7.17348C17.8087 7.4567 18.3826 7.93741 18.7702 8.45166C18.8857 8.60444 19.0608 8.91374 19.1689 9.15969C19.4335 9.74101 19.508 10.1286 19.5043 10.844C19.5005 11.5558 19.4186 11.9173 19.1167 12.5321C18.6472 13.4936 17.9466 14.1382 16.9516 14.5258C16.225 14.8053 16.4225 14.7941 12.3457 14.7941C9.50245 14.7941 8.68263 14.8053 8.6081 14.8425C8.51494 14.8873 8.51494 14.8947 8.50376 15.4239C8.49258 16.0387 8.47022 15.9791 8.90249 16.4822C9.1857 16.8101 9.34967 17.0076 9.63288 17.3542C10.2105 18.0547 10.8589 18.8298 11.0303 19.0236C11.1421 19.1466 11.4551 19.5155 11.7197 19.8434C12.7035 21.0434 12.8824 21.2558 13.3109 21.7439C13.4041 21.8446 13.6127 22.0979 13.7767 22.3029C13.9444 22.5079 14.1307 22.7277 14.1903 22.7911C14.2537 22.8581 14.3506 22.9737 14.4102 23.0556C14.4698 23.1376 14.5891 23.2867 14.6748 23.3873C15.0213 23.7898 15.5244 24.3897 15.6101 24.4978C15.6623 24.5611 15.7778 24.699 15.871 24.8034C15.9641 24.9077 16.2958 25.299 16.6014 25.6753C16.9107 26.0554 17.2349 26.4467 17.328 26.5511C17.4212 26.6517 17.574 26.8306 17.6634 26.9423C17.7566 27.0541 17.846 27.1659 17.8684 27.1883C17.887 27.2107 17.9988 27.3411 18.1106 27.4827C18.2224 27.6206 18.3901 27.8218 18.4832 27.9299C18.5764 28.0342 18.759 28.2503 18.8894 28.4106C19.0645 28.6193 19.1652 28.705 19.262 28.7348C19.3515 28.7571 20.4396 28.7683 22.4854 28.7609C25.366 28.7497 25.5784 28.746 25.6157 28.6863C25.6492 28.6304 25.6268 28.5894 25.4852 28.4441C25.3921 28.3435 25.2095 28.1385 25.0791 27.9858C24.9486 27.833 24.7288 27.5758 24.5834 27.4156C24.4418 27.2591 24.2779 27.069 24.2257 27.002C24.1735 26.9312 23.9835 26.7076 23.8046 26.5064C23.6257 26.3051 23.2643 25.8878 22.9997 25.5785C22.4892 24.9748 22.0793 24.5052 21.483 23.8345C21.2781 23.6034 20.9166 23.1823 20.6818 22.9029C20.4471 22.6197 20.0781 22.1948 19.862 21.9526C19.3403 21.3676 19.2695 21.293 18.2112 20.0521C17.8311 19.6124 17.7267 19.4633 17.7454 19.4074C17.7566 19.3814 18.0994 19.2584 18.5056 19.1391C19.3999 18.8708 20.2048 18.5355 20.7377 18.2038C21.6507 17.6374 22.0755 17.2834 22.7016 16.5753C23.1748 16.035 23.2046 16.0015 23.5475 15.4686C24.5275 13.9407 25.0306 11.7943 24.8555 9.8938C24.7884 9.17459 24.6095 8.28397 24.4418 7.82561C24.3971 7.71382 24.3338 7.5275 24.3002 7.4157C24.0319 6.5847 23.2046 5.2469 22.4892 4.49043C22.0159 3.99109 21.8333 3.81594 21.6321 3.67061C21.5091 3.58118 21.3824 3.47684 21.3489 3.43957C21.2743 3.36132 20.6967 2.97004 20.3278 2.75018C20.0036 2.5564 19.2173 2.19493 18.8074 2.0496C18.4236 1.91545 17.4324 1.66205 17.0448 1.5987C16.8138 1.56144 15.122 1.55026 9.26023 1.54653C5.1425 1.5428 1.73651 1.55026 1.69552 1.55771Z" fill="#252525"/>
<path d="M54.9243 1.58L54.8349 1.62471L54.8125 5.34745C54.8013 7.397 54.8013 13.4749 54.8088 18.8559L54.82 28.6378L54.8982 28.7049C54.9727 28.7682 55.2634 28.7682 60.7376 28.7571C66.7409 28.7459 66.8005 28.7422 67.8402 28.5782C68.7047 28.4403 69.219 28.3136 70.2251 27.9782C71.3021 27.6168 72.7144 26.8901 73.5678 26.2529C73.7317 26.1299 73.9292 25.9883 74.0038 25.9361C74.4845 25.6119 75.8484 24.3002 76.3179 23.704C76.739 23.1711 77.6967 21.729 77.6967 21.6283C77.6967 21.6097 77.7675 21.4681 77.8569 21.3153C77.9426 21.1625 78.0395 20.9762 78.0693 20.9054C78.0954 20.8346 78.1923 20.6147 78.2855 20.421C78.6283 19.6794 78.9227 18.6658 79.1835 17.328C79.4109 16.1616 79.4034 14.1084 79.1724 12.8935C79.0308 12.152 78.8444 11.388 78.7289 11.0676C78.6618 10.8738 78.5799 10.6278 78.5538 10.5272C78.5277 10.4229 78.4234 10.1732 78.3302 9.96826C78.2333 9.7633 78.1327 9.53599 78.1066 9.46518C77.9054 8.9323 77.0632 7.53488 76.5117 6.8194C75.7738 5.86543 74.4845 4.63569 73.6125 4.06182C73.5044 3.98729 73.374 3.8904 73.3256 3.84568C73.2771 3.80097 73.2249 3.7637 73.21 3.7637C73.1951 3.7637 73.1392 3.73389 73.0833 3.69663C72.7107 3.44323 72.5057 3.32771 71.9766 3.06313C70.6835 2.41472 69.8264 2.10915 68.511 1.82594C68.306 1.78123 68.0787 1.73278 68.0079 1.71415C67.9371 1.69552 67.6762 1.6508 67.4303 1.61726C67.0204 1.55764 66.4651 1.55019 60.9984 1.54273C56.3925 1.53528 54.9951 1.54273 54.9243 1.58ZM66.9645 6.8902C67.9296 7.06907 68.1905 7.14733 68.9209 7.46408C69.6065 7.75846 70.3332 8.17956 70.7282 8.50376C71.5555 9.18197 72.4312 10.1173 72.6473 10.5459C72.6846 10.6167 72.774 10.7694 72.8523 10.8812C73.1765 11.3694 73.7019 12.6625 73.8174 13.2662C74.1379 14.9394 74.0485 16.4821 73.5454 17.9131C73.4038 18.323 73.0163 19.1502 72.8523 19.3962C72.2113 20.3613 72.0846 20.5216 71.4921 21.0917C70.799 21.7588 70.2512 22.15 69.424 22.5637C68.6153 22.9699 67.5533 23.3015 66.685 23.4208C66.5844 23.4357 65.1087 23.4543 63.4132 23.4655C60.6332 23.4804 60.3165 23.4767 60.2345 23.4208L60.1451 23.3649V15.107V6.85294L60.2308 6.8194C60.2792 6.79704 61.509 6.78959 63.4244 6.79704C66.4167 6.80822 66.5509 6.81194 66.9645 6.8902Z" fill="#252525"/>
<path d="M28.9285 1.93036C28.88 1.93781 28.8167 1.9788 28.7869 2.02352C28.7384 2.09432 28.731 3.60353 28.731 15.3531V28.6043L28.8055 28.6863L28.8837 28.7683H39.3439C48.6191 28.7646 49.8115 28.7609 49.8786 28.7087C49.9531 28.6528 49.9531 28.6081 49.9531 26.1263C49.9531 24.0394 49.9457 23.5885 49.901 23.5401C49.8562 23.4805 49.26 23.4767 42.0307 23.4767C34.2573 23.4767 34.2089 23.4767 34.1343 23.4022C34.0598 23.3277 34.0598 23.2792 34.0598 20.5179C34.0598 18.01 34.0672 17.7007 34.1194 17.6486C34.1716 17.5964 34.8461 17.5889 40.9836 17.5889C47.0875 17.5889 47.803 17.5815 47.8775 17.5293L47.9595 17.4734V15.1891C47.9595 13.024 47.9558 12.901 47.8924 12.8452C47.8291 12.7855 47.2962 12.7818 41.0171 12.7818C34.2498 12.7818 34.2089 12.7818 34.1343 12.7073C34.0598 12.6327 34.0598 12.5918 34.0672 9.96087L34.0784 7.289L34.1716 7.24056C34.2461 7.20329 35.8522 7.19212 42.0419 7.19212C46.3161 7.19212 49.8413 7.18093 49.8749 7.16976C49.9084 7.15858 49.942 7.08405 49.9531 6.99461C49.9643 6.90891 49.9718 5.76115 49.9643 4.44571C49.9531 2.25828 49.9494 2.04588 49.8898 1.98998C49.8302 1.93036 49.1296 1.92663 39.4184 1.9229C33.6946 1.91918 28.9732 1.9229 28.9285 1.93036Z" fill="#252525"/>
<path d="M83.1373 1.93036C83.0851 1.93781 83.0217 1.97135 82.9994 2.00488C82.9621 2.05333 82.9509 4.7811 82.9509 15.3568C82.9509 27.3932 82.9547 28.6565 83.0106 28.7087C83.0627 28.7609 83.3459 28.7683 85.593 28.7683C87.7133 28.7683 88.127 28.7609 88.1903 28.7161C88.2611 28.664 88.2611 28.5298 88.2686 20.1565C88.2723 15.476 88.2872 11.6266 88.2947 11.6005C88.3431 11.4738 88.4549 11.5744 89.081 12.3384C89.4611 12.7967 89.7145 13.1135 89.9567 13.4302C90.0573 13.5606 90.456 14.0451 91.0932 14.8127C91.3206 15.0848 91.5963 15.4201 91.7081 15.558C91.8199 15.6996 91.9801 15.8934 92.0621 15.9866C92.1441 16.0834 92.3192 16.3033 92.4534 16.471C92.5876 16.6387 92.8857 17.0039 93.1167 17.2834C94.0036 18.364 94.2831 18.7069 94.5216 19.005C94.7154 19.2509 95.0247 19.6124 95.211 19.8136C95.3451 19.959 95.4867 19.985 96.1091 19.9664C96.6457 19.9515 96.6717 19.9403 96.9624 19.564C97.0556 19.4447 97.3388 19.1019 97.5959 18.8C97.853 18.4982 98.1139 18.1889 98.1735 18.1106C98.2369 18.0324 98.3934 17.8312 98.5275 17.6635C98.6617 17.4958 98.848 17.2573 98.9449 17.1343C99.0418 17.0113 99.1834 16.8399 99.2616 16.7542C99.3399 16.6685 99.489 16.4896 99.5896 16.3629C99.6939 16.2325 99.8504 16.0387 99.9436 15.9307C100.037 15.8263 100.231 15.5916 100.372 15.409C100.517 15.2301 100.693 15.014 100.767 14.9282C100.842 14.8425 100.961 14.7047 101.028 14.6189C102.642 12.6178 103.465 11.6229 103.536 11.5819C103.681 11.4999 103.677 11.3583 103.674 20.1117C103.67 26.9684 103.677 28.582 103.718 28.6565L103.767 28.7497L106.293 28.7609C108.514 28.7683 108.835 28.7609 108.913 28.7124L108.999 28.6565V15.3754C108.999 2.51914 108.995 2.09059 108.932 2.00861L108.861 1.92663H107.031C105.332 1.93036 105.19 1.93408 105.097 1.99743C104.978 2.07196 105 2.04588 104.471 2.68683C104.248 2.95886 103.946 3.31287 103.8 3.47684C103.659 3.63707 103.405 3.93519 103.241 4.13642C102.675 4.83327 102.496 5.0494 102.217 5.38106C102.064 5.56365 101.896 5.76488 101.848 5.82823C101.796 5.89158 101.695 6.01083 101.624 6.09654C101.55 6.18225 101.375 6.39093 101.229 6.55862C101.088 6.73003 100.901 6.94617 100.816 7.03933C100.734 7.13249 100.611 7.28528 100.544 7.37844C100.421 7.55358 100.376 7.60575 99.6082 8.50756C99.3511 8.8094 99.0753 9.13733 98.9933 9.23794C98.6989 9.59568 98.5052 9.83045 98.2182 10.177C98.0543 10.3708 97.8642 10.6018 97.7897 10.6913C97.7114 10.7844 97.5549 10.967 97.4357 11.1012C97.3202 11.2353 96.9773 11.6452 96.6792 12.0067C96.3811 12.3719 96.1053 12.6886 96.0643 12.7073C96.0233 12.7296 95.9563 12.7371 95.919 12.7259C95.8557 12.7035 95.5165 12.3309 95.211 11.9471C95.1625 11.8837 95.0097 11.7049 94.8756 11.5483C94.462 11.0602 94.339 10.9148 94.2309 10.7658C94.1713 10.6838 94.1117 10.6205 94.093 10.6205C94.0744 10.6205 94.0222 10.5571 93.9775 10.4789C93.9291 10.4043 93.8247 10.2702 93.7465 10.1845C93.6682 10.1025 93.5602 9.97205 93.5043 9.90125C93.3366 9.68139 92.9304 9.19322 92.8298 9.08888C92.7739 9.03671 92.6397 8.87647 92.5279 8.7386C92.4161 8.60072 92.2559 8.41067 92.1702 8.31378C92.0882 8.22062 91.9429 8.0492 91.8534 7.93368C91.6336 7.6542 90.9554 6.84183 89.9753 5.68663C89.7703 5.44441 89.5617 5.19101 89.5095 5.12393C89.4573 5.05685 89.3157 4.88171 89.1927 4.73265C89.0698 4.58359 88.9207 4.39727 88.8574 4.32274C88.7977 4.24449 88.645 4.06934 88.522 3.92774C88.399 3.78613 88.2015 3.55136 88.086 3.40976C87.9705 3.26443 87.7059 2.94768 87.5009 2.70173C87.2923 2.45579 87.1246 2.2471 87.1246 2.23593C87.1246 2.22474 87.0463 2.15022 86.9531 2.07196L86.778 1.92663L85.0042 1.9229C84.0279 1.91918 83.1894 1.9229 83.1373 1.93036Z" fill="#252525"/>
<path d="M114.887 1.93036C114.835 1.93781 114.771 1.96389 114.749 1.98252C114.712 2.01234 114.7 4.72893 114.7 15.3382C114.7 27.3895 114.704 28.6565 114.76 28.7087C114.812 28.7609 115.095 28.7683 117.32 28.7683C119.53 28.7683 119.835 28.7609 119.91 28.7087L119.992 28.6528V15.3568C119.992 2.13531 119.992 2.06078 119.917 1.99371C119.847 1.93036 119.698 1.92663 117.413 1.9229C116.076 1.91918 114.939 1.92663 114.887 1.93036Z" fill="#252525"/>
</svg>
